<?xml version="1.0" encoding="UTF-8"?>
<!DOCTYPE svg PUBLIC "-//W3C//DTD SVG 1.1//EN" "http://www.w3.org/Graphics/SVG/1.1/DTD/svg11.dtd">
<!-- Creator: CorelDRAW X8 -->
<svg xmlns="http://www.w3.org/2000/svg" xml:space="preserve" width="86.4284mm" height="9.9226mm" version="1.1" style="shape-rendering:geometricPrecision; text-rendering:geometricPrecision; image-rendering:optimizeQuality; fill-rule:evenodd; clip-rule:evenodd"
viewBox="0 0 3411 392"
 xmlns:xlink="http://www.w3.org/1999/xlink">
 <defs>
  <style type="text/css">
   <![CDATA[
    .fil1 {fill:#FEFEFE}
    .fil0 {fill:#EA556F;fill-rule:nonzero}
   ]]>
  </style>
 </defs>
 <g id="Слой_x0020_1">
  <metadata id="CorelCorpID_0Corel-Layer"/>
  <g id="_1623352119536">
   <path class="fil0" d="M351 131c-4,5 -6,12 -4,19 5,16 8,34 7,53 -4,81 -69,147 -150,151 -94,5 -171,-73 -166,-167 4,-76 72,-145 149,-149 33,-2 64,6 90,22 7,4 17,3 23,-4l0 0c8,-8 6,-22 -4,-29 -28,-16 -60,-26 -94,-27 -108,-3 -200,84 -202,192 -2,113 92,205 206,199 103,-5 185,-91 186,-194 0,-21 -3,-40 -9,-59 -4,-13 -22,-18 -32,-7z"/>
   <path class="fil0" d="M196 255c0,0 -1,0 -1,0 -7,0 -14,-4 -20,-9l-51 -58c-10,-11 -9,-28 2,-39 11,-10 28,-9 38,3l33 35 143 -149c11,-11 28,-11 39,0 11,10 11,27 1,38l-165 170c-5,6 -12,9 -19,9z"/>
   <path class="fil0" d="M196 96c-6,0 -10,-5 -10,-10l0 -24c0,-6 4,-10 10,-10 5,0 10,4 10,10l0 24c0,5 -5,10 -10,10z"/>
   <path class="fil0" d="M196 340c-6,0 -10,-5 -10,-10l0 -24c0,-6 4,-10 10,-10 5,0 10,4 10,10l0 24c0,5 -5,10 -10,10z"/>
   <path class="fil0" d="M330 206l-24 0c-6,0 -10,-5 -10,-10 0,-6 4,-10 10,-10l24 0c5,0 10,4 10,10 0,5 -5,10 -10,10z"/>
   <path class="fil0" d="M86 206l-24 0c-6,0 -10,-5 -10,-10 0,-6 4,-10 10,-10l24 0c5,0 10,4 10,10 0,5 -5,10 -10,10z"/>
  </g>
  <g id="_1623352121968">
   <path class="fil1" d="M1277 318l127 0c57,0 107,-66 105,-128 -2,-64 -42,-127 -104,-127l-127 0c-58,0 -96,67 -97,124 -1,57 34,131 96,131zm-53 -129c0,43 25,72 61,81 15,3 107,4 130,-5 32,-13 47,-38 47,-74 -1,-36 -28,-82 -74,-82 -32,0 -64,0 -96,0 -34,0 -68,38 -68,80z"/>
   <path class="fil1" d="M2820 318l128 0c56,0 106,-66 104,-128 -2,-64 -42,-127 -104,-127l-127 0c-57,0 -95,67 -97,124 -1,57 34,131 96,131zm-53 -129c0,43 26,72 61,81 15,3 108,4 130,-5 33,-13 47,-38 47,-74 0,-36 -27,-82 -74,-82 -32,0 -64,0 -95,0 -34,0 -69,38 -69,80z"/>
   <path class="fil1" d="M830 319l45 0 0 -209 91 0c68,-1 112,-2 115,42 3,44 -33,45 -102,49l-80 -1 0 42 0 1 37 0c60,0 55,-4 79,21l52 54 66 0 -71 -76c4,-5 14,-7 21,-11 26,-14 41,-40 40,-79 -2,-39 -27,-90 -104,-90l-189 0 0 257z"/>
   <path class="fil1" d="M504 319l51 0 0 -212 111 0c38,-1 74,1 81,33 12,53 -28,60 -79,60l-89 0 -1 45 86 1c32,-2 53,-1 77,-8 32,-14 55,-32 53,-86 -2,-54 -30,-91 -116,-92 -58,0 -116,0 -174,0l0 259z"/>
   <path class="fil1" d="M2380 317l0 -46c-48,-1 -108,3 -154,0 -102,-9 -92,-158 -2,-162 50,-3 105,0 156,0l0 -49c-51,0 -155,-5 -196,6 -54,13 -79,57 -79,121 0,65 22,110 75,125 38,10 152,6 200,5z"/>
   <polygon class="fil1" points="1839,321 2061,321 2061,271 1885,271 1885,107 2061,107 2061,61 1839,61 "/>
   <polygon class="fil1" points="2422,105 2520,105 2520,320 2571,320 2571,105 2680,105 2680,62 2422,62 "/>
   <path class="fil1" d="M1783 61l-48 0 0 90c0,28 5,74 -8,93 -15,20 -41,27 -71,28l-102 0 -1 47 124 0c39,-1 62,-13 83,-39 21,-25 23,-56 23,-103l0 -116z"/>
   <polygon class="fil1" points="1901,211 2047,211 2048,164 1901,164 "/>
   <path class="fil1" d="M3108 319l46 0 0 -209 91 0c67,-1 111,-2 114,42 3,44 -33,45 -102,49l-80 -1 0 42 0 1 38 0c59,0 54,-4 78,21l53 54 65 0 -71 -76c5,-5 14,-7 21,-11 26,-14 41,-40 40,-79 -1,-39 -27,-90 -103,-90l-190 0 0 257z"/>
  </g>
 </g>
</svg>
